Coordinates
version=1
nRows=7
nColumns=40
inDegrees=yes

Units are S.I. units (second, meters, Newtons, ...)
Angles are in degrees.

endheader
time	pelvis_tilt	pelvis_list	pelvis_rotation	pelvis_tx	pelvis_ty	pelvis_tz	hip_flexion_r	hip_adduction_r	hip_rotation_r	knee_angle_r	knee_angle_r_beta	ankle_angle_r	subtalar_angle_r	mtp_angle_r	hip_flexion_l	hip_adduction_l	hip_rotation_l	knee_angle_l	knee_angle_l_beta	ankle_angle_l	subtalar_angle_l	mtp_angle_l	lumbar_extension	lumbar_bending	lumbar_rotation	arm_flex_r	arm_add_r	arm_rot_r	elbow_flex_r	pro_sup_r	wrist_flex_r	wrist_dev_r	arm_flex_l	arm_add_l	arm_rot_l	elbow_flex_l	pro_sup_l	wrist_flex_l	wrist_dev_l
     20.58750000	     -1.65653555	     -6.15199594	      6.28760961	      1.13286774	      0.93348416	      0.48530371	      5.07794066	      5.35060802	    -19.37867266	     12.37116946	     12.37116946	     10.46696641	     -3.50414822	     -4.05756298	     34.06548333	    -13.44181303	      0.64007734	     53.61816600	     53.61816600	     11.09995874	    -19.15077412	     18.68096106	     -9.64333518	      6.03086950	      2.70357352	     24.93793425	    -16.17049596	    -10.02813594	     56.28047242	     45.76257507	      0.00000000	      0.00000000	      6.40680861	     -6.67364630	      1.46464607	     28.06722545	     46.17011356	      0.00000000	      0.00000000
     20.59871429	     -1.84895914	     -6.21841294	      6.53291457	      1.13100150	      0.93303960	      0.48555186	      4.44247428	      5.58070802	    -19.68115048	     11.68417334	     11.68417334	     10.65785408	     -2.98947682	     -4.21865500	     34.87990350	    -13.02146436	      0.53178712	     50.40662368	     50.40662368	     10.78058134	    -19.01928539	     18.41226136	     -9.65099349	      6.05198917	      2.70182010	     27.45106840	    -16.59746277	     -9.66475189	     58.68244164	     45.67182764	      0.00000000	      0.00000000	      5.00420918	     -6.67947437	      1.67417712	     26.43857574	     46.10754489	      0.00000000	      0.00000000
     20.60992857	     -2.08381653	     -6.12128313	      6.70140727	      1.12922601	      0.93256272	      0.48564995	      3.88668691	      5.61327597	    -19.78299196	     11.12359443	     11.12359443	     10.92385435	     -2.63941672	     -4.32513702	     35.47441062	    -12.34564044	      0.46411900	     46.93729675	     46.93729675	     10.43700345	    -18.80883025	     18.39599640	     -9.60778202	      5.88587399	      2.90963727	     29.91083390	    -17.05795639	     -9.54885252	     60.55777148	     45.61291919	      0.00000000	      0.00000000	      3.52650504	     -6.73728041	      1.77527683	     25.39132653	     46.06298236	      0.00000000	      0.00000000
     20.62114286	     -2.33302529	     -6.19515204	      6.84758304	      1.12751364	      0.93176659	      0.48561794	      3.29129607	      5.78764057	    -20.31522591	     10.44559563	     10.44559563	     11.16951227	     -1.54422608	     -4.67937907	     35.99495327	    -11.80156294	      0.61037753	     43.35021783	     43.35021783	      9.54310120	    -18.42722843	     16.58861240	     -9.56552456	      5.95146073	      2.96554394	     32.08057077	    -17.74206961	     -8.50435452	     63.91491477	     45.46623721	      0.00000000	      0.00000000	      2.06565768	     -6.75429022	      2.03297965	     24.05912804	     45.98458852	      0.00000000	      0.00000000
     20.63235714	     -2.70660923	     -6.28278154	      6.91801735	      1.12574323	      0.93073486	      0.48555804	      3.02713365	      5.94925501	    -20.33114616	     10.12404793	     10.12404793	     11.43670816	     -1.39058226	     -4.77162517	     36.62356600	    -11.28781631	      0.80228562	     39.90289176	     39.90289176	      9.37147471	    -17.38147937	     16.77941487	     -9.31020833	      5.98838685	      3.56689022	     34.56147362	    -18.54611867	     -8.72017490	     65.16467531	     45.44400282	      0.00000000	      0.00000000	      0.60405502	     -6.72418542	      2.04997808	     23.50353233	     45.95284976	      0.00000000	      0.00000000
     20.64357143	     -2.85283060	     -6.14593977	      6.96750802	      1.12443597	      0.93012364	      0.48534261	      2.20953711	      5.95460828	    -20.53957859	      9.32875317	      9.32875317	     11.72294264	     -0.56819052	     -4.87473105	     36.64105595	    -10.55755831	      1.05641899	     36.19941394	     36.19941394	      9.04130701	    -16.27895757	     16.21962205	     -9.42906892	      5.77195959	      3.31990812	     36.93158830	    -18.30976319	     -8.34665193	     67.76218663	     45.35348312	      0.00000000	      0.00000000	     -1.19787456	     -6.95415629	      2.12666599	     22.79136864	     45.90069592	      0.00000000	      0.00000000
     20.65478571	     -3.09343598	     -6.28403898	      7.04056563	      1.12322784	      0.92894974	      0.48498547	      1.61451907	      6.14684854	    -21.29566181	      8.76348370	      8.76348370	     12.14590015	      0.98710030	     -5.10988354	     36.76689842	    -10.18285152	      1.27424713	     32.56727055	     32.56727055	      7.72971599	    -14.76304553	     12.73183322	     -9.39615741	      5.92491287	      3.66225143	     38.68793647	    -19.32156968	     -7.11148899	     71.52023211	     45.20286333	      0.00000000	      0.00000000	     -3.12561204	     -7.11069354	      2.39859654	     23.40282204	     45.78237012	      0.00000000	      0.00000000
